<mxfile host="app.diagrams.net" modified="2024-05-14T13:47:15.692Z" agent="Mozilla/5.0 (Windows NT 10.0; Win64; x64) AppleWebKit/537.36 (KHTML, like Gecko) Chrome/124.0.0.0 Safari/537.36" version="24.4.0" etag="D0HkLHkLq1UBWqW8U70l" type="github">
  <diagram name="PÃ¡gina-1" id="UwHMIjDQnJ-VYrRRpDM0">
    <mxGraphModel>
      <root>
        <mxCell id="0" />
        <mxCell id="1" parent="0" />
      </root>
    </mxGraphModel>
  </diagram>
</mxfile>
